# xmcd
#
# Track frame offsets: 
#        150
#        12660
#        27640
#        39319
#        51181
#        63672
#        77298
#        91398
#        103225
#        116879
#        130025
#        143325
#        155924
#        168037
#        182158
#        193269
#        205131
#        221034
#        231906
#        244800
#        257075
#        270744
#        283617
#        297772
#        311120
#        322188
#
# Disc length: 4447 seconds
#
# Revision: 1
# Processed by: cddbd v1.5.2PL0 Copyright (c) Steve Scherf et al.
# Submitted via: ExactAudioCopy v1.3
#
DISCID=8e115d1a
DTITLE=Various Artist - Golden Age of American Sweet Bands CD4 - 1937
DTITLE=Various Artist - 1940
DYEAR=2002
DGENRE=Swing
TTITLE0=Lee Sullivan, Leo Reisman and his Orch. - Rosalie
TTITLE1=Buddy Clark, Lud Gluskin and his Continental Orch. - Head Over H
TTITLE1=eels (1937)
TTITLE2=The Merry Macs, Ray Noble and His Orch. - Slumming On Park Avenu
TTITLE2=e (1937)
TTITLE3=Vocal Trio, Guy Lombardo and His Royal Canadians - Boo Hoo (1937
TTITLE3=)
TTITLE4=Mert Curtis, Russ Morgan and His Orch. - On A Little Dream Ranch
TTITLE4=(1937)
TTITLE5=Dick Todd, Larry Clinton and his Orch. - Change Partners (1938)
TTITLE6=Eddy Howard, Dick Jurgens and his Orch. - Don't Let That Moon Ge
TTITLE6=t Away (1938)
TTITLE7=Judy Starr, Hal Kemp and his Orch. - I've Got A Pocketful Of Dre
TTITLE7=ams (1938)
TTITLE8=Mar Ann Mercer, Mitchell Ayres and his Fashions in Music - I'll 
TTITLE8=Be Seeing You (1940)
TTITLE9=Ginny Simms, Kay Kyser and his Orch. - Music, Maestro, Please (1
TTITLE9=938)
TTITLE10=Paula Kelly, Dick Stabile and his Orch. - My Heart Is Taking Le
TTITLE10=ssons (1938)
TTITLE11=Harriet Hilliard, Ozzie Nelson and his Orch. - Says My Heart (1
TTITLE11=938)
TTITLE12=Russ Morgan and his Orch. - You Must Have Been A Beautiful Baby
TTITLE12=(1938)
TTITLE13=Bea Wain, Larry Clinton and his Orch. - Love Is Here To Stay (1
TTITLE13=938)
TTITLE14=Larrry Cotton, Horace Heidt and his Brigadiers - This Can't B
TTITLE14=e Love (1938)
TTITLE15=The Three Barons and Chorus, Sammy Kaye - The Umbrella Man (193
TTITLE15=8)
TTITLE16=Bob Allen, Hal Kemp and his Orch. - Goodnight, Angel (1937)
TTITLE17=Ford Leary, Larry Clinton and his Orch. - Jeepers Creepers (193
TTITLE17=8)
TTITLE18=Kirby Brooks,  and his Music of Romance - Here Comes The Night 
TTITLE18=(1939)
TTITLE19=Frankie Masters with his Orch. - Scatterbrain (1939)
TTITLE20=Glen Gray and The Casa Loma Orch. - Sunrise Serenade (1939)
TTITLE21=Orrin Tucker with his Orch. - Wishing (Will Make It So) (1939
TTITLE21=)
TTITLE22=Dolores O'Neil, Bob Chester and his Orch. - We Three (My Echo, 
TTITLE22=My Shadow and Me) (1940)
TTITLE23=The 3 Kadets, Sammy Kaye - Taking A Chance On Love (1940)
TTITLE24=Buddy Moreno, Dick Jurgens and his Orch. - You Say The Sweetest
TTITLE24=Things, Baby (1940)
TTITLE25=Ben Bernie with his Orch. - Au Revoir, Pleasant Dreams (1941)
EXTD=YEAR: 1940
EXTT0=
EXTT1=
EXTT2=
EXTT3=
EXTT4=
EXTT5=
EXTT6=
EXTT7=
EXTT8=
EXTT9=
EXTT10=
EXTT11=
EXTT12=
EXTT13=
EXTT14=
EXTT15=
EXTT16=
EXTT17=
EXTT18=
EXTT19=
EXTT20=
EXTT21=
EXTT22=
EXTT23=
EXTT24=
EXTT25=
PLAYORDER=
